<svg xmlns="http://www.w3.org/2000/svg" viewBox="0 0 100 100">
  <defs>
    <linearGradient id="g" x1="0%" y1="0%" x2="100%" y2="100%">
      <stop offset="0%" stop-color="#f59e0b"/>
      <stop offset="100%" stop-color="#d97706"/>
    </linearGradient>
  </defs>
  <rect width="100" height="100" rx="22" fill="url(#g)"/>
  <path d="M28 30h44a4 4 0 0 1 4 4v0a4 4 0 0 1-4 4H28a4 4 0 0 1-4-4v0a4 4 0 0 1 4-4z" fill="white" opacity="0.95"/>
  <path d="M28 46h32a4 4 0 0 1 4 4v0a4 4 0 0 1-4 4H28a4 4 0 0 1-4-4v0a4 4 0 0 1 4-4z" fill="white" opacity="0.8"/>
  <path d="M28 62h38a4 4 0 0 1 4 4v0a4 4 0 0 1-4 4H28a4 4 0 0 1-4-4v0a4 4 0 0 1 4-4z" fill="white" opacity="0.65"/>
</svg>
